<svg xmlns="http://www.w3.org/2000/svg" version="1.1" xmlns:xlink="http://www.w3.org/1999/xlink" xmlns:svgjs="http://svgjs.dev/svgjs" width="1000" height="128" viewBox="0 0 1000 128"><g transform="matrix(1,0,0,1,-0.6060605824620211,-0.3747413101723467)"><svg viewBox="0 0 396 51" data-background-color="#ffffff" preserveAspectRatio="xMidYMid meet" height="128" width="1000" xmlns="http://www.w3.org/2000/svg" xmlns:xlink="http://www.w3.org/1999/xlink"><g id="tight-bounds" transform="matrix(1,0,0,1,0.24000000934503873,0.1493109907717951)"><svg viewBox="0 0 395.5199999999999 50.70137801845639" height="50.70137801845639" width="395.5199999999999"><g><svg viewBox="0 0 566.1071663376845 72.56880420571429" height="50.70137801845639" width="395.5199999999999"><g transform="matrix(1,0,0,1,0,10.029407817142857)"><svg viewBox="0 0 395.52 52.50998857142857" height="52.50998857142857" width="395.52"><g><svg viewBox="0 0 395.52 52.50998857142857" height="52.50998857142857" width="395.52"><g><svg viewBox="0 0 395.52 52.50998857142857" height="52.50998857142857" width="395.52"><g transform="matrix(1,0,0,1,0,0)"><svg width="395.52" viewBox="0.45000001788139343 -34.150001525878906 264.3800048828125 34.85000228881836" height="52.50998857142857" data-palette-color="#093d65"><g class="undefined-text-0" data-fill-palette-color="primary" id="text-0"><path d="M7.35-24.05L0.45-24.05 0.45-33.5 25.45-33.5 25.45-24.05 18.95-24.05 18.95 0 7.35 0 7.35-24.05ZM43.8 0L41.9-8.65 39.05-8.65 39.05 0 27.45 0 27.45-33.5 41.55-33.5Q49.3-33.5 52.65-30.93 56-28.35 56-21.38 56-14.4 52.3-11.4L52.3-11.4 55.6 0 43.8 0ZM39-17.8L41.85-17.8Q44.3-17.8 44.3-21.08 44.3-24.35 41.55-24.35L41.55-24.35 39-24.35 39-17.8ZM67.95 0L56.55 0 63.95-33.5 81.5-33.5 89.05 0 77.34 0 76.4-3.85 68.75-3.85 67.95 0ZM73.4-24.4L72.15-24.4 70.25-12.7 75.2-12.7 73.4-24.4ZM114.54-9.45L114.69-0.65Q109.39 0.65 103.84 0.65 98.29 0.65 95.29-0.93 92.29-2.5 90.97-6.2 89.64-9.9 89.64-16.85L89.64-16.85Q89.64-26.8 92.72-30.48 95.79-34.15 104.44-34.15L104.44-34.15Q108.04-34.15 112.94-33.15L112.94-33.15 114.69-32.8 114.39-23.85Q110.29-24.35 106.82-24.35 103.34-24.35 102.34-23.03 101.34-21.7 101.34-17.55 101.34-13.4 101.82-11.8 102.29-10.2 103.34-9.68 104.39-9.15 106.74-9.15L106.74-9.15 114.54-9.45ZM130.54-11.15L128.49-11.15 128.49 0 116.89 0 116.89-33.5 128.49-33.5 128.49-21.65 130.49-21.65 134.24-33.5 145.74-33.5 140.39-17.3 146.24 0 134.59 0 130.54-11.15Z" fill="#093d65" data-fill-palette-color="primary"></path><path d="M172.84 0L147.74 0 147.74-33.5 172.84-33.5 172.84-24.25 159.34-24.25 159.34-21.4 169.84-21.4 169.84-12.25 159.34-12.25 159.34-9.25 172.84-9.25 172.84 0ZM184.84 0L173.44 0 180.84-33.5 198.39-33.5 205.94 0 194.24 0 193.29-3.85 185.64-3.85 184.84 0ZM190.29-24.4L189.04-24.4 187.14-12.7 192.09-12.7 190.29-24.4ZM232.94-32.85L232.64-23.85Q225.59-24.6 222.39-24.6 219.19-24.6 218.66-24.43 218.14-24.25 218.14-23.7 218.14-23.15 218.74-22.85 219.34-22.55 222.51-21.85 225.69-21.15 227.71-20.48 229.74-19.8 231.36-18.57 232.99-17.35 233.51-15.58 234.04-13.8 234.04-10.8L234.04-10.8Q234.04-4.6 230.74-1.95 227.44 0.7 220.79 0.7L220.79 0.7Q217.59 0.7 214.06 0.25 210.54-0.2 208.64-0.65L208.64-0.65 206.69-1.1 207.19-9.95Q214.84-8.85 219.74-8.85L219.74-8.85Q222.34-8.85 222.34-10L222.34-10Q222.34-10.5 221.74-10.73 221.14-10.95 218.49-11.35L218.49-11.35Q211.49-12.45 208.96-14.78 206.44-17.1 206.44-22.4L206.44-22.4Q206.44-29.15 209.69-31.65 212.94-34.15 219.69-34.15L219.69-34.15Q224.44-34.15 230.84-33.2L230.84-33.2 232.94-32.85ZM255.03-10.5L255.03 0 243.43 0 243.43-10.5 233.88-33.5 246.18-33.5 249.33-23.65 252.58-33.5 264.83-33.5 255.03-10.5Z" fill="#ee5244" data-fill-palette-color="secondary"></path></g></svg></g></svg></g></svg></g></svg></g><g transform="matrix(1,0,0,1,407.9163480619886,0)"><svg viewBox="0 0 158.19081827569596 72.56880420571429" height="72.56880420571429" width="158.19081827569596"><g><svg xmlns="http://www.w3.org/2000/svg" version="1.1" data-icon="task" data-container-transform="translate(0 34)" viewBox="0 35.28099822998047 128 58.71900177001953" x="0" y="0" height="72.56880420571429" width="158.19081827569596" class="icon-icon-0" data-fill-palette-color="accent" id="icon-0"><path d="M58.781 1.281l-31.063 30.969-12.969-13.156-5.688 5.625 15.781 16 2.844 2.844 2.844-2.844 33.906-33.781-5.656-5.656z m-55.281 2.719c-1.967 0-3.5 1.533-3.5 3.5v49c0 1.967 1.533 3.5 3.5 3.5h49c1.967 0 3.5-1.533 3.5-3.5v-36.406l-4 4v31.906h-48v-48h43.188l4-4h-47.688z m64.5 12v4h60v-4h-60z m0 12v4h50v-4h-50z m0 12v4h54v-4h-54z" transform="translate(0 34)" fill="#ee5244" data-fill-palette-color="accent"></path></svg></g></svg></g></svg></g><defs></defs></svg><rect width="395.5199999999999" height="50.70137801845639" fill="none" stroke="none" visibility="hidden"></rect></g></svg></g></svg>